<svg xmlns="http://www.w3.org/2000/svg" width="75.93" height="75.93" viewBox="0 0 75.93 75.93"><defs><style>.a{fill:#43619c;}</style></defs><path class="a" d="M368.126,509.827a37.965,37.965,0,1,0,37.96,37.97A37.97,37.97,0,0,0,368.126,509.827Zm18.47,54.02c0,1.12-.55,1.85-1.66,1.85H375.6v-14h4.75l.72-6H375.6v-3.12c0-1.6.43-2.88,2.73-2.88h3.27v-4.77c-1-.07-2.55-.22-4.58-.22-4.22,0-7.42,2.58-7.42,7.32v3.67h-5v6h5v14h-17.32c-1.12,0-1.68-.73-1.68-1.85v-32.66c0-1.12.56-2.49,1.68-2.49h32.66c1.11,0,1.66,1.37,1.66,2.49Z" transform="translate(-330.156 -509.827)"/></svg>