<svg xmlns="http://www.w3.org/2000/svg" width="21.665" height="21.665" viewBox="0 0 21.665 21.665"><defs><style>.a{fill:#8bf7f6;}</style></defs><path class="a" d="M7.357,12.376a18.233,18.233,0,0,0,7.932,7.932l2.648-2.648a1.2,1.2,0,0,1,1.228-.289,13.729,13.729,0,0,0,4.3.686,1.207,1.207,0,0,1,1.2,1.2v4.2a1.207,1.207,0,0,1-1.2,1.2A20.459,20.459,0,0,1,3,4.2,1.207,1.207,0,0,1,4.2,3H8.416a1.207,1.207,0,0,1,1.2,1.2,13.673,13.673,0,0,0,.686,4.3A1.208,1.208,0,0,1,10,9.728Z" transform="translate(-3 -3)"/></svg>