<svg xmlns="http://www.w3.org/2000/svg" width="45.51" height="45.6" viewBox="0 0 45.51 45.6"><defs><style>.a{fill:#8bf7f6;}</style></defs><path class="a" d="M215.728,211.364A4.364,4.364,0,1,1,211.364,207,4.364,4.364,0,0,1,215.728,211.364Zm0,0" transform="translate(-188.609 -188.564)"/><path class="a" d="M156.424,138.5a4.336,4.336,0,0,0-2.485-2.485,7.243,7.243,0,0,0-2.431-.451c-1.381-.063-1.795-.077-5.29-.077s-3.91.013-5.29.076a7.248,7.248,0,0,0-2.431.451,4.337,4.337,0,0,0-2.485,2.485,7.246,7.246,0,0,0-.451,2.431c-.063,1.38-.077,1.794-.077,5.29s.014,3.91.077,5.29a7.244,7.244,0,0,0,.451,2.431,4.336,4.336,0,0,0,2.485,2.485,7.234,7.234,0,0,0,2.431.451c1.38.063,1.794.076,5.29.076s3.91-.013,5.29-.076a7.234,7.234,0,0,0,2.431-.451,4.335,4.335,0,0,0,2.485-2.485,7.25,7.25,0,0,0,.451-2.431c.063-1.381.076-1.795.076-5.29s-.013-3.91-.076-5.29a7.235,7.235,0,0,0-.451-2.431Zm-10.206,14.444a6.723,6.723,0,1,1,6.723-6.723A6.723,6.723,0,0,1,146.218,152.944Zm6.989-12.14a1.571,1.571,0,1,1,1.571-1.571A1.571,1.571,0,0,1,153.207,140.8Zm0,0" transform="translate(-123.463 -123.422)"/><path class="a" d="M22.755,0A22.8,22.8,0,1,0,45.51,22.8,22.78,22.78,0,0,0,22.755,0ZM35.743,28.2a9.622,9.622,0,0,1-.607,3.178A6.688,6.688,0,0,1,31.314,35.2a9.577,9.577,0,0,1-3.171.608c-1.393.064-1.839.079-5.387.079s-3.994-.015-5.387-.079A9.577,9.577,0,0,1,14.2,35.2a6.688,6.688,0,0,1-3.821-3.829A9.62,9.62,0,0,1,9.768,28.2c-.064-1.4-.079-1.842-.079-5.4s.015-4,.079-5.4a9.623,9.623,0,0,1,.607-3.178A6.692,6.692,0,0,1,14.2,10.4a9.579,9.579,0,0,1,3.172-.608c1.393-.064,1.839-.079,5.387-.079s3.994.015,5.387.079a9.581,9.581,0,0,1,3.172.608,6.69,6.69,0,0,1,3.821,3.829,9.621,9.621,0,0,1,.608,3.178c.064,1.4.078,1.842.078,5.4S35.807,26.8,35.743,28.2Zm0,0"/></svg>