<svg xmlns="http://www.w3.org/2000/svg" width="75.932" height="75.932" viewBox="0 0 75.932 75.932"><defs><style>.a{fill:#187fb8;}.b{fill:#fff;}</style></defs><ellipse class="a" cx="37.966" cy="37.966" rx="37.966" ry="37.966"/><g transform="translate(20.186 21.473)"><rect class="b" width="7.19" height="22.782" transform="translate(0.93 10.754)"/><path class="b" d="M764.108,541.834c-4.119,0-6.7,2.231-7.177,3.8v-3.576h-8.077c.1,1.9,0,22.782,0,22.782h8.077V552.507a5.194,5.194,0,0,1,.176-1.862A4.114,4.114,0,0,1,761,547.853c2.8,0,4.08,2.107,4.08,5.193v11.789h8.153V552.168C773.233,545.111,769.218,541.834,764.108,541.834Z" transform="translate(-736.343 -531.299)"/><path class="b" d="M740.735,531.3c-2.655,0-4.392,1.705-4.392,3.955a3.975,3.975,0,0,0,4.29,3.949h.052c2.7,0,4.386-1.748,4.386-3.955A3.993,3.993,0,0,0,740.735,531.3Z" transform="translate(-736.343 -531.299)"/></g></svg>