<svg xmlns="http://www.w3.org/2000/svg" width="445.466" height="120.774" viewBox="0 0 445.466 120.774"><defs><style>.a{fill:#e6e4cf;}.b{fill:#62bfba;}.c{fill:#fff;}.d{fill:#3d3d3b;}.e{fill:#aed5c6;}</style></defs><rect class="a" width="186.228" height="89.722" transform="translate(3.047 15.949)"/><circle class="b" cx="60.387" cy="60.387" r="60.387" transform="translate(35.224 0)"/><path class="c" d="M73.04,44.944c-.085,1.645.943,2.817,2.455,3.676a19.944,19.944,0,0,0,5.611,1.826c3.64.786,7.316,1.487,10.713,3.108,3.591,1.717,6.288,4.2,6.977,8.319a12.629,12.629,0,0,1-7.473,14.184A18.249,18.249,0,0,1,86.3,77.58a.539.539,0,0,0-.532.641A12.49,12.49,0,0,1,85.7,80a3.671,3.671,0,0,1-3.615,3.519,3.737,3.737,0,0,1-3.519-3.712c-.109-1.56-.121-1.536-1.693-1.778a24.637,24.637,0,0,1-10.193-3.966c-1.62-1.1-1.838-2.805-1.584-4.571a3.55,3.55,0,0,1,2.745-3.071,4.1,4.1,0,0,1,3.458.592,21.093,21.093,0,0,0,9.613,3.18,10.036,10.036,0,0,0,7.908-2.128,5.222,5.222,0,0,0,1.886-3.422c.23-2.019-.943-3.3-2.479-4.293-1.56-1-3.41-1.294-5.139-1.874-2.842-.943-5.744-1.62-8.622-2.43a16.27,16.27,0,0,1-5.949-2.914A8.768,8.768,0,0,1,65.253,47.5a14.014,14.014,0,0,1,1.149-8.67c1.536-3.047,4.16-4.813,7.219-6.046A18.714,18.714,0,0,1,77.9,31.607c.484-.073.689-.266.653-.774a5.2,5.2,0,0,1,.23-1.971,3.482,3.482,0,0,1,3.749-2.6,3.7,3.7,0,0,1,3.12,3.2,10.549,10.549,0,0,1,.1,1.85c-.024.544.193.738.689.822a23.694,23.694,0,0,1,4.353,1.2,12.128,12.128,0,0,1,3.132,1.778A3.728,3.728,0,0,1,95.349,39.2a3.779,3.779,0,0,1-3.289,3,3.179,3.179,0,0,1-2-.4,18.845,18.845,0,0,0-7.11-2.394,13.139,13.139,0,0,0-7.05.786A4.72,4.72,0,0,0,73.04,44.944Z" transform="translate(13.599 5.491)"/><path class="d" d="M80.067,84.39A3.629,3.629,0,0,1,83.6,88.1a3.673,3.673,0,0,1-3.712,3.555,3.635,3.635,0,1,1,.181-7.267Z" transform="translate(15.968 17.654)"/><path class="d" d="M79.931,10.18a3.628,3.628,0,1,1-3.591,3.628A3.636,3.636,0,0,1,79.931,10.18Z" transform="translate(15.97 2.13)"/><path class="d" d="M63.91,13.769a3.527,3.527,0,0,1,3.615-3.579A3.57,3.57,0,0,1,71.1,13.83a3.6,3.6,0,1,1-7.195-.06Z" transform="translate(13.369 2.132)"/><path class="d" d="M88.81,13.82a3.592,3.592,0,1,1,7.183.024,3.591,3.591,0,1,1-7.183-.024Z" transform="translate(18.578 2.13)"/><path class="d" d="M88.81,88.042a3.507,3.507,0,0,1,3.543-3.652,3.55,3.55,0,0,1,3.64,3.591,3.606,3.606,0,0,1-3.567,3.676A3.565,3.565,0,0,1,88.81,88.042Z" transform="translate(18.578 17.654)"/><path class="d" d="M63.91,87.993a3.6,3.6,0,1,1,7.195.024,3.631,3.631,0,0,1-3.615,3.64A3.59,3.59,0,0,1,63.91,87.993Z" transform="translate(13.369 17.654)"/><path class="e" d="M33.64,29.618a1.543,1.543,0,0,1,.447-1.028A1.459,1.459,0,0,1,33.64,29.618Z" transform="translate(7.037 5.981)"/><g transform="translate(205.031 62.48)"><path class="c" d="M169.56,54.068c.326-.508.447-1.209,1.221-1.318a.43.43,0,0,1-.085.351,3.619,3.619,0,0,0-.762,2.769c.012,6.2,0,12.406.012,18.6,0,2.2.738,2.95,2.914,2.95,2.745,0,5.49.024,8.223-.012a12.191,12.191,0,0,0,4.764-.955c.339-.145.665-.351,1.052-.181a6.245,6.245,0,0,1-2.854,1.209,12.685,12.685,0,0,1-3.507.314c-2.66-.024-5.333-.024-7.993,0A2.83,2.83,0,0,1,169.56,76Q169.56,65.047,169.56,54.068Z" transform="translate(-169.56 -51.445)"/><path class="c" d="M367.9,59.36c.423.459.326,1.064.472,1.608.036.157-.012.339.145.459v.592a.183.183,0,0,1-.23-.024A4.59,4.59,0,0,1,367.9,59.36Z" transform="translate(-128.083 -50.062)"/><path class="c" d="M368.315,61.57h.157v2.817h-.157A3.905,3.905,0,0,1,368.315,61.57Z" transform="translate(-128.037 -49.6)"/><path class="c" d="M261.294,61.463v.871c0,4.281.012,8.549,0,12.83-.012,2-1.487,3.083-3.241,2.455a2.342,2.342,0,0,1-1.56-2.3c-.024-1.161-.012-2.322-.012-3.482V55.453c0-.193-.012-.4,0-.593.036-.883.109-1.8,1.064-2.189a2.824,2.824,0,0,1,3.011.363,9.207,9.207,0,0,1,1.4,1.511q5.405,6.784,10.834,13.555c.121.145.254.29.423.459a1.164,1.164,0,0,0,.133-.81c.012-4.148,0-8.307,0-12.455V54.7a2.58,2.58,0,0,1,2.31-2.563,2.736,2.736,0,0,1,2.612,2.624c.012,2.987,0,5.985,0,8.972,0,3.761-.012,7.509.012,11.27a2.48,2.48,0,0,1-1.318,2.527,2.737,2.737,0,0,1-2.914-.435,6.252,6.252,0,0,1-1.33-1.378q-5.405-6.874-10.834-13.736C261.753,61.789,261.668,61.56,261.294,61.463Z" transform="translate(-151.378 -51.572)"/><path class="c" d="M300.05,65.064V54.907a2.244,2.244,0,0,1,2.515-2.515c4.22-.012,8.452-.012,12.672,0,1.669,0,2.7.943,2.684,2.406a2.3,2.3,0,0,1-2.479,2.358c-3.192.012-6.372.024-9.565-.012-.75-.012-.992.169-.955.943.073,1.233.048,2.467,0,3.7-.024.641.145.846.822.846q4.154-.054,8.307-.012a2.387,2.387,0,0,1,2.334,3.362,2.32,2.32,0,0,1-2.358,1.463c-2.745.012-5.49.024-8.235-.012-.665-.012-.907.157-.871.859q.091,1.85,0,3.7c-.036.7.157.931.895.919,3.386-.036,6.772-.024,10.157-.012a2.428,2.428,0,0,1,2.672,2.3,2.345,2.345,0,0,1-2.576,2.5c-2.322.012-4.643,0-6.965,0h-6.53a2.239,2.239,0,0,1-2.527-2.5C300.05,71.835,300.05,68.45,300.05,65.064Z" transform="translate(-142.263 -51.522)"/><path class="c" d="M299.9,65.048V75.206a2.236,2.236,0,0,1-2.213,2.515,2.415,2.415,0,0,1-2.551-2.491c-.024-2.346-.024-4.692.012-7.037.012-.6-.181-.75-.762-.75q-5.187.036-10.375,0c-.58,0-.762.145-.762.75.036,2.346.012,4.692.012,7.037a2.221,2.221,0,0,1-2.237,2.491,2.342,2.342,0,0,1-2.624-2.455q-.018-10.193,0-20.387A2.329,2.329,0,0,1,281,52.4a2.225,2.225,0,0,1,2.249,2.479c0,2.346.012,4.692-.012,7.037-.012.544.145.726.7.713q5.224-.036,10.46,0c.617,0,.738-.218.725-.774-.024-2.346-.036-4.692,0-7.037a2.412,2.412,0,0,1,3.047-2.346,2.124,2.124,0,0,1,1.717,2.273Q299.907,59.9,299.9,65.048Z" transform="translate(-146.793 -51.518)"/><path class="c" d="M253.129,65.073c0,3.434-.012,6.868,0,10.3a2.14,2.14,0,0,1-1.2,2.128,2.61,2.61,0,0,1-2.684-.109,2.319,2.319,0,0,1-.967-2.189c.012-6.518,0-13.035.012-19.565,0-.375-.012-.738,0-1.112a2.244,2.244,0,0,1,2.479-2.189,2.151,2.151,0,0,1,2.346,2.213C253.141,58.06,253.129,61.566,253.129,65.073Z" transform="translate(-153.092 -51.531)"/><path class="c" d="M318.58,65.073V54.855a2.42,2.42,0,1,1,4.837-.024q.018,10.23,0,20.447a2.434,2.434,0,0,1-3.6,2.273,2.117,2.117,0,0,1-1.233-2.1Z" transform="translate(-138.386 -51.531)"/><path class="c" d="M372.919,63.636c-.157-.883-.3-1.778-.459-2.66-.326-.774-.592-1.572-.979-2.31-3.918-7.388-14.268-9.287-20.846-3.845-4.353,3.6-5.828,10.327-3.47,15.853a12.43,12.43,0,0,0,6.784,6.6c.194.048.387.073.568.133a16.4,16.4,0,0,0,9.129.266c.472-.109.943-.266,1.415-.411a12.767,12.767,0,0,0,6.953-6.82,21.559,21.559,0,0,0,.907-4ZM359.485,73.709a8.646,8.646,0,1,1,8.67-8.622A8.379,8.379,0,0,1,359.485,73.709Z" transform="translate(-132.641 -51.666)"/><path class="c" d="M218.03,61.9c-1.354-6.554-7.69-10.895-14.668-10.145a13.454,13.454,0,0,0-9.625,21.052,12.87,12.87,0,0,0,6.868,4.885c.58.109,1.149.206,1.729.3,1.487.254,3,.024,4.486.145a27.989,27.989,0,0,0,3.7-.907,13.271,13.271,0,0,0,5.091-3.833A13.454,13.454,0,0,0,218.03,61.9ZM204.862,73.713a8.646,8.646,0,1,1,8.682-8.609A8.411,8.411,0,0,1,204.862,73.713Z" transform="translate(-165.007 -51.671)"/><path class="c" d="M193.023,64.555c-.157-6.288-4.329-11.8-11.536-12.092-2.842-.121-5.683-.036-8.525-.073a4.7,4.7,0,0,0-2.225.435,2.963,2.963,0,0,0-1.028,2.551c.036,6.518.024,13.035.024,19.541,0,1.983.8,2.781,2.769,2.793,2.152,0,4.293-.048,6.445.012a16.536,16.536,0,0,0,7.932-1.366c.472-.314.955-.6,1.4-.955A12.74,12.74,0,0,0,193.023,64.555Zm-7.388,6.711a6.959,6.959,0,0,1-5.042,1.983c-1.777.024-3.555-.012-5.333.012-.58.012-.7-.206-.689-.738.024-2.491.012-4.982.012-7.485,0-2.467.012-4.934-.012-7.412,0-.556.109-.786.726-.774,1.85.048,3.7-.024,5.55.073a7.092,7.092,0,0,1,7.158,6.481A8.715,8.715,0,0,1,185.635,71.266Z" transform="translate(-169.529 -51.52)"/><path class="c" d="M248.774,63.094a11.569,11.569,0,0,0-10.036-10.472,66.722,66.722,0,0,0-10.883-.157,2.325,2.325,0,0,0-2.285,2.576V75.065c0,1.8.834,2.66,2.612,2.672,2.987.012,5.986.048,8.972-.012a11.063,11.063,0,0,0,8.6-3.833A13.4,13.4,0,0,0,248.774,63.094ZM241.6,71.159a6.932,6.932,0,0,1-5.139,2.092c-1.8.024-3.6-.012-5.405.012-.544.012-.665-.193-.665-.689.024-2.515.012-5.042.012-7.557,0-2.467.012-4.934-.012-7.412-.012-.592.169-.762.762-.75,1.874.048,3.761-.024,5.623.073a7.031,7.031,0,0,1,7.025,6.106A8.8,8.8,0,0,1,241.6,71.159Z" transform="translate(-157.843 -51.535)"/><path class="c" d="M346.832,73.725c-1.4-1.753-2.842-3.482-4.281-5.212-.29-.351-.387-.532.133-.81a7.837,7.837,0,0,0,4.051-8.875,7.746,7.746,0,0,0-7.255-6.348c-3.3-.218-6.614-.048-9.927-.073-2.056-.012-2.842.762-2.842,2.805V68.03c0,2.394-.012,4.788,0,7.195A2.278,2.278,0,0,0,328.4,77.7a2.432,2.432,0,0,0,3.2-2.322c.048-1.971.036-3.954.012-5.925-.012-.556.169-.726.713-.713,1.379.036,2.769.036,4.148,0a1.379,1.379,0,0,1,1.33.7q2.431,3.555,4.921,7.05a2.605,2.605,0,0,0,3.918.689A2.408,2.408,0,0,0,346.832,73.725Zm-8.114-9.238c-1.064.024-2.116,0-3.18,0-1.088,0-2.177-.012-3.253.012-.46.012-.665-.1-.653-.617.024-2.14.024-4.293,0-6.445,0-.5.169-.629.653-.617,2.043.024,4.1-.024,6.143.012a3.766,3.766,0,0,1,3.482,5.586A3.419,3.419,0,0,1,338.718,64.487Z" transform="translate(-136.686 -51.525)"/></g><g transform="translate(206.28 27.593)"><path class="c" d="M273.538,31.121q-1.723,2.177-3.434,4.341c-.435.544-.846,1.1-1.294,1.62a1.942,1.942,0,0,1-3.313-.121c-1.258-1.717-2.467-3.458-3.7-5.2-.157-.218-.326-.423-.52-.689a1.225,1.225,0,0,0-.157.871c-.012,3.216,0,6.421-.012,9.637a1.928,1.928,0,0,1-1.548,2.068,1.8,1.8,0,0,1-2.334-1.62,8.5,8.5,0,0,1-.036-.967V25.632c0-.242,0-.5.024-.738a1.905,1.905,0,0,1,1.27-1.753,1.774,1.774,0,0,1,1.959.52,5.971,5.971,0,0,1,.762.895c1.874,2.515,3.736,5.042,5.611,7.57.508.689.52.689,1.04-.024q2.975-4.027,5.961-8.041a1.951,1.951,0,0,1,2.322-.846,1.875,1.875,0,0,1,1.282,2.031c0,5.441.012,10.871,0,16.312,0,1.306-.617,2.08-1.657,2.152A1.756,1.756,0,0,1,273.8,42.2a5.869,5.869,0,0,1-.06-1.028V31.182A1.315,1.315,0,0,1,273.538,31.121Z" transform="translate(-152.478 -22.777)"/><path class="c" d="M242.42,33.464V25.532c0-1.669.6-2.261,2.3-2.261,3.362,0,6.723-.012,10.085,0a1.928,1.928,0,1,1,.012,3.845c-2.515.012-5.042.024-7.557-.012-.653-.012-.931.121-.883.846.073.979.036,1.971.012,2.963-.012.5.169.629.641.629,2.2-.024,4.4-.012,6.6-.012,1.378,0,2.128.677,2.14,1.9a1.893,1.893,0,0,1-2.164,1.983c-2.177.012-4.353.024-6.53-.012-.568-.012-.726.169-.7.713.036.992.048,1.983,0,2.963-.024.568.169.713.713.7q4.081-.036,8.15-.012a2.011,2.011,0,0,1,2.213,2.128,1.85,1.85,0,0,1-1.947,1.753c-1.04.036-2.08.012-3.108.012h-7.86c-1.475,0-2.116-.653-2.116-2.14Q242.42,37.509,242.42,33.464Z" transform="translate(-155.567 -22.726)"/><path class="c" d="M199.259,44.005a10.158,10.158,0,0,1-7.207-2.636c-2.394-2.322-3.108-5.272-3.011-8.464a10.3,10.3,0,0,1,3.035-7.352,10.58,10.58,0,0,1,14-.169,2.039,2.039,0,0,1,.254,2.854,1.937,1.937,0,0,1-2.793.012c-1.971-1.947-4.3-1.959-6.687-1.2a5.779,5.779,0,0,0-4.015,4.97,7.317,7.317,0,0,0,1.608,6.324,6.666,6.666,0,0,0,9.129.52,3.177,3.177,0,0,1,.992-.641,2.065,2.065,0,0,1,2.152.629,2.012,2.012,0,0,1,.157,2.225,3.772,3.772,0,0,1-1.2,1.2A10.4,10.4,0,0,1,199.259,44.005Z" transform="translate(-166.736 -22.819)"/><path class="c" d="M277.221,33.507c0-2.769-.012-5.538,0-8.307a1.988,1.988,0,0,1,2.987-1.765,1.871,1.871,0,0,1,.955,1.8c.012,1.33,0,2.672,0,4,0,4.123.012,8.259,0,12.382a1.949,1.949,0,0,1-2.588,2.068,1.751,1.751,0,0,1-1.354-1.874Z" transform="translate(-148.289 -22.745)"/><path class="c" d="M242.949,31.456a9.2,9.2,0,0,0-8.283-8.053,63.716,63.716,0,0,0-8.6-.085,1.851,1.851,0,0,0-1.778,2c-.012,2.745,0,5.49,0,8.235v8c0,1.475.641,2.128,2.116,2.14,2.443.012,4.9.036,7.34,0a8.753,8.753,0,0,0,6.36-2.588A10.562,10.562,0,0,0,242.949,31.456Zm-4.861,5.865a5.508,5.508,0,0,1-4.788,2.745c-1.451.036-2.914-.012-4.365.024-.544.012-.725-.133-.725-.7.036-1.971.012-3.954.012-5.925V27.538c0-.326-.036-.653.46-.641,1.632.024,3.265-.073,4.885.048a5.748,5.748,0,0,1,5.478,5.03A7.411,7.411,0,0,1,238.088,37.321Z" transform="translate(-159.361 -22.737)"/><path class="c" d="M303.033,40.575q-2.684-5.333-5.345-10.665c-.919-1.838-1.85-3.664-2.757-5.49a1.967,1.967,0,0,0-1.983-1.27,2.233,2.233,0,0,0-1.911,1.439c-1.391,2.733-2.793,5.453-4.184,8.186-1.366,2.66-2.733,5.32-4.075,7.981a2.074,2.074,0,0,0,.774,2.89,2.226,2.226,0,0,0,2.829-1.052c.339-.653.677-1.318.967-2a.752.752,0,0,1,.8-.5c3.241.012,6.469.012,9.71,0a.821.821,0,0,1,.846.544c.327.713.689,1.427,1.052,2.128a1.71,1.71,0,0,0,2.043.943,2.017,2.017,0,0,0,1.608-1.935A2.435,2.435,0,0,0,303.033,40.575Zm-7.34-4.365c-1.874-.024-3.761-.012-5.635,0-.339,0-.629-.012-.387-.484l3.337-6.711c.4.871.713,1.536,1.016,2.2.665,1.463,1.33,2.926,2.007,4.377C296.213,35.968,296.273,36.21,295.693,36.21Z" transform="translate(-147.184 -22.751)"/><path class="c" d="M191.134,40.566q-2.412-4.807-4.825-9.6c-1.1-2.189-2.189-4.377-3.3-6.554a1.968,1.968,0,0,0-2.563-1.137,2.489,2.489,0,0,0-1.318,1.33c-1.318,2.6-2.648,5.187-3.978,7.787-1.427,2.793-2.866,5.574-4.281,8.38a2.077,2.077,0,0,0,.8,2.89,2.222,2.222,0,0,0,2.854-1.137c.3-.617.617-1.233.895-1.874a.807.807,0,0,1,.846-.544c3.216.012,6.421.024,9.637,0a.858.858,0,0,1,.907.58c.326.726.689,1.427,1.064,2.116a1.68,1.68,0,0,0,2.056.907,2.016,2.016,0,0,0,1.6-1.886A2.6,2.6,0,0,0,191.134,40.566ZM183.745,36.2c-.943-.012-1.874,0-2.817,0-.919,0-1.826-.012-2.745,0-.423.012-.617-.073-.387-.544,1.016-2.031,2.019-4.063,3.035-6.094.06-.121.1-.3.278-.3s.206.193.266.314c.931,2.019,1.838,4.039,2.781,6.058C184.41,36.165,184.193,36.213,183.745,36.2Z" transform="translate(-170.593 -22.754)"/><path class="c" d="M225.842,40.66l-2.1-4.172c-2.019-4.015-4.051-8.029-6.058-12.044a1.987,1.987,0,0,0-2.031-1.294,2.169,2.169,0,0,0-1.838,1.4q-2.739,5.387-5.5,10.75c-.943,1.85-1.911,3.688-2.817,5.55a2.051,2.051,0,0,0,.859,2.805,2.2,2.2,0,0,0,2.769-1.052c.339-.665.665-1.318.979-2a.765.765,0,0,1,.786-.52c3.265.012,6.518.012,9.782,0a.716.716,0,0,1,.75.459c.351.738.713,1.463,1.088,2.189a1.706,1.706,0,0,0,2.092.955,1.982,1.982,0,0,0,1.56-1.983A2.18,2.18,0,0,0,225.842,40.66ZM217.281,36.2h-4.45c-.266,0-.7.1-.435-.435q1.487-2.993,2.975-5.961c.1-.193.206-.387.411-.75.895,1.935,1.717,3.724,2.527,5.514C219.071,36.2,219.059,36.2,217.281,36.2Z" transform="translate(-163.343 -22.751)"/></g><g transform="translate(0 13.47)"><path class="d" d="M167.238,11.14H101.857a.619.619,0,0,0-.617.617v3.712a.619.619,0,0,0,.617.617h63.12v84.776h-63.12a.619.619,0,0,0-.617.617v3.712a.619.619,0,0,0,.617.617h65.381a2.686,2.686,0,0,0,2.684-2.684v-89.3A2.678,2.678,0,0,0,167.238,11.14Z" transform="translate(21.179 -11.14)"/><path class="d" d="M68.646,100.862H4.946V16.086h63.7a.619.619,0,0,0,.617-.617V11.757a.619.619,0,0,0-.617-.617H2.684A2.678,2.678,0,0,0,0,13.824v89.311a2.686,2.686,0,0,0,2.684,2.684H68.646a.619.619,0,0,0,.617-.617v-3.712A.622.622,0,0,0,68.646,100.862Z" transform="translate(0 -11.14)"/></g></svg>