<svg xmlns="http://www.w3.org/2000/svg" width="352.507" height="95.571" viewBox="0 0 352.507 95.571"><defs><style>.a{fill:#e6e4cf;}.b{fill:#62bfba;}.c{fill:#fff;}.d{fill:#3d3d3b;}.e{fill:#aed5c6;}.f{fill:#e7e6e6;}.g{fill:#e2e1e1;}.h{fill:#bcbcbb;}</style></defs><rect class="a" width="147.366" height="70.999" transform="translate(2.411 12.621)"/><circle class="b" cx="47.786" cy="47.786" r="47.786" transform="translate(27.873)"/><path class="c" d="M71.363,41.043a3.18,3.18,0,0,0,1.942,2.909,15.782,15.782,0,0,0,4.44,1.445,37.913,37.913,0,0,1,8.478,2.459c2.842,1.359,4.976,3.32,5.521,6.583a9.993,9.993,0,0,1-5.913,11.224,14.441,14.441,0,0,1-3.971,1.206.427.427,0,0,0-.421.507,9.885,9.885,0,0,1-.057,1.407,2.9,2.9,0,0,1-2.861,2.784,2.957,2.957,0,0,1-2.784-2.938c-.086-1.234-.1-1.215-1.34-1.407a19.5,19.5,0,0,1-8.066-3.139,3.4,3.4,0,0,1-1.253-3.617,2.809,2.809,0,0,1,2.172-2.43,3.244,3.244,0,0,1,2.737.469,16.691,16.691,0,0,0,7.607,2.517,7.942,7.942,0,0,0,6.258-1.684,4.132,4.132,0,0,0,1.493-2.708c.182-1.6-.746-2.612-1.962-3.4a17.391,17.391,0,0,0-4.067-1.483c-2.249-.746-4.545-1.282-6.822-1.923a12.875,12.875,0,0,1-4.708-2.306A6.938,6.938,0,0,1,65.2,43.062,11.09,11.09,0,0,1,66.11,36.2a10.225,10.225,0,0,1,5.712-4.784,14.809,14.809,0,0,1,3.387-.928c.383-.057.545-.211.517-.612a4.111,4.111,0,0,1,.182-1.56,2.755,2.755,0,0,1,2.966-2.057A2.924,2.924,0,0,1,81.343,28.8a8.347,8.347,0,0,1,.077,1.464c-.019.431.153.584.545.651a18.75,18.75,0,0,1,3.445.947,9.6,9.6,0,0,1,2.478,1.407A2.95,2.95,0,0,1,89.017,36.5a2.99,2.99,0,0,1-2.6,2.373,2.515,2.515,0,0,1-1.579-.316,14.912,14.912,0,0,0-5.626-1.895,10.4,10.4,0,0,0-5.578.622A3.735,3.735,0,0,0,71.363,41.043Z" transform="translate(-2.804 -1.132)"/><path class="d" d="M79.287,84.39a2.872,2.872,0,0,1,2.794,2.938,2.906,2.906,0,0,1-2.938,2.813,2.876,2.876,0,1,1,.144-5.751Z" transform="translate(-3.293 -3.641)"/><path class="d" d="M79.182,10.18a2.871,2.871,0,1,1-2.842,2.871A2.877,2.877,0,0,1,79.182,10.18Z" transform="translate(-3.293 -0.439)"/><path class="d" d="M63.91,13.022a2.791,2.791,0,0,1,2.861-2.832,2.871,2.871,0,0,1-.01,5.741A2.8,2.8,0,0,1,63.91,13.022Z" transform="translate(-2.757 -0.44)"/><path class="d" d="M88.81,13.06a2.842,2.842,0,1,1,5.684.019,2.842,2.842,0,1,1-5.684-.019Z" transform="translate(-3.831 -0.439)"/><path class="d" d="M88.81,87.28a2.775,2.775,0,0,1,2.8-2.89,2.809,2.809,0,0,1,2.88,2.842,2.853,2.853,0,0,1-2.823,2.909A2.821,2.821,0,0,1,88.81,87.28Z" transform="translate(-3.831 -3.641)"/><path class="d" d="M63.91,87.241a2.847,2.847,0,1,1,5.693.019,2.873,2.873,0,0,1-2.861,2.88A2.841,2.841,0,0,1,63.91,87.241Z" transform="translate(-2.757 -3.641)"/><path class="e" d="M33.64,29.4a1.221,1.221,0,0,1,.354-.813A1.155,1.155,0,0,1,33.64,29.4Z" transform="translate(-1.451 -1.233)"/><g transform="translate(162.245 49.441)"><path class="f" d="M169.56,53.793c.258-.4.354-.957.966-1.043a.341.341,0,0,1-.067.277,2.864,2.864,0,0,0-.6,2.191c.01,4.909,0,9.817.01,14.716,0,1.741.584,2.335,2.306,2.335,2.172,0,4.344.019,6.507-.01a9.647,9.647,0,0,0,3.77-.756c.268-.115.526-.277.832-.144a4.942,4.942,0,0,1-2.258.957,10.038,10.038,0,0,1-2.775.249c-2.105-.019-4.22-.019-6.325,0a2.239,2.239,0,0,1-2.363-1.416Q169.56,62.481,169.56,53.793Z" transform="translate(-169.56 -51.717)"/><path class="g" d="M367.888,59.36c.335.364.258.842.373,1.273.029.124-.01.268.115.364v.469a.145.145,0,0,1-.182-.019A3.632,3.632,0,0,1,367.888,59.36Z" transform="translate(-178.114 -52.002)"/><path class="h" d="M368.261,61.57h.124V63.8h-.124A3.09,3.09,0,0,1,368.261,61.57Z" transform="translate(-178.123 -52.098)"/><path class="d" d="M260.288,59.517v.689c0,3.387.01,6.765,0,10.152a1.9,1.9,0,1,1-3.8.124c-.019-.919-.01-1.837-.01-2.756V54.762c0-.153-.01-.316,0-.469.029-.7.086-1.426.842-1.732a2.235,2.235,0,0,1,2.383.287,7.286,7.286,0,0,1,1.11,1.2q4.277,5.368,8.573,10.726c.1.115.2.23.335.364a.921.921,0,0,0,.105-.641c.01-3.282,0-6.574,0-9.856v-.469a2.042,2.042,0,0,1,1.828-2.029,2.165,2.165,0,0,1,2.067,2.076c.01,2.363,0,4.736,0,7.1,0,2.976-.01,5.942.01,8.918a1.962,1.962,0,0,1-1.043,2,2.166,2.166,0,0,1-2.306-.344A4.948,4.948,0,0,1,269.33,70.8q-4.277-5.44-8.573-10.87C260.652,59.776,260.585,59.594,260.288,59.517Z" transform="translate(-173.31 -51.691)"/><path class="d" d="M300.05,62.418V54.38a1.776,1.776,0,0,1,1.99-1.99c3.339-.01,6.688-.01,10.028,0a1.875,1.875,0,0,1,2.124,1.9,1.82,1.82,0,0,1-1.962,1.866c-2.526.01-5.043.019-7.569-.01-.593-.01-.785.134-.756.746.057.976.038,1.952,0,2.928-.019.507.115.67.651.67q3.287-.043,6.574-.01a1.889,1.889,0,0,1,1.847,2.66,1.836,1.836,0,0,1-1.866,1.158c-2.172.01-4.344.019-6.516-.01-.526-.01-.718.124-.689.679q.072,1.464,0,2.928c-.029.555.124.737.708.727,2.679-.029,5.358-.019,8.038-.01a1.922,1.922,0,0,1,2.115,1.818,1.855,1.855,0,0,1-2.038,1.981c-1.837.01-3.674,0-5.512,0H302.05a1.772,1.772,0,0,1-2-1.981C300.05,67.776,300.05,65.1,300.05,62.418Z" transform="translate(-175.19 -51.701)"/><path class="d" d="M295.413,62.409v8.038a1.77,1.77,0,0,1-1.751,1.99,1.911,1.911,0,0,1-2.019-1.971c-.019-1.856-.019-3.713.01-5.569.01-.478-.144-.593-.6-.593q-4.1.029-8.21,0c-.459,0-.6.115-.6.593.029,1.856.01,3.713.01,5.569a1.757,1.757,0,0,1-1.77,1.971,1.853,1.853,0,0,1-2.076-1.942q-.014-8.066,0-16.133a1.843,1.843,0,0,1,2.057-1.962,1.761,1.761,0,0,1,1.78,1.962c0,1.856.01,3.713-.01,5.569-.01.431.115.574.555.565q4.134-.029,8.277,0c.488,0,.584-.172.574-.612-.019-1.856-.029-3.713,0-5.569a1.908,1.908,0,0,1,2.411-1.856,1.681,1.681,0,0,1,1.359,1.8Q295.417,58.332,295.413,62.409Z" transform="translate(-174.255 -51.702)"/><path class="d" d="M252.117,62.416c0,2.717-.01,5.435,0,8.152a1.693,1.693,0,0,1-.947,1.684,2.065,2.065,0,0,1-2.124-.086,1.835,1.835,0,0,1-.765-1.732c.01-5.157,0-10.315.01-15.482,0-.3-.01-.584,0-.88a1.776,1.776,0,0,1,1.962-1.732,1.7,1.7,0,0,1,1.856,1.751C252.127,56.866,252.117,59.641,252.117,62.416Z" transform="translate(-172.956 -51.699)"/><path class="d" d="M318.58,62.416V54.33a1.915,1.915,0,1,1,3.827-.019q.014,8.1,0,16.18a1.926,1.926,0,0,1-2.851,1.8,1.675,1.675,0,0,1-.976-1.665Z" transform="translate(-175.989 -51.699)"/><path class="d" d="M367.311,61.144c-.124-.7-.239-1.407-.364-2.105-.258-.612-.469-1.244-.775-1.828-3.1-5.846-11.291-7.349-16.5-3.043a11,11,0,0,0-2.746,12.544,9.836,9.836,0,0,0,5.368,5.224c.153.038.306.057.45.105a12.974,12.974,0,0,0,7.224.211c.373-.086.746-.211,1.12-.325a10.1,10.1,0,0,0,5.5-5.4,17.06,17.06,0,0,0,.718-3.167Zm-10.631,7.971a6.842,6.842,0,1,1,6.861-6.822A6.63,6.63,0,0,1,356.681,69.115Z" transform="translate(-177.174 -51.672)"/><path class="d" d="M212.457,59.765a10.477,10.477,0,0,0-11.607-8.028A10.647,10.647,0,0,0,193.234,68.4a10.184,10.184,0,0,0,5.435,3.866c.459.086.909.163,1.368.239,1.177.2,2.373.019,3.55.115a22.148,22.148,0,0,0,2.928-.718,10.5,10.5,0,0,0,4.028-3.033A10.646,10.646,0,0,0,212.457,59.765Zm-10.42,9.349a6.842,6.842,0,1,1,6.87-6.813A6.656,6.656,0,0,1,202.037,69.114Z" transform="translate(-170.499 -51.671)"/><path class="d" d="M188.158,62.016c-.124-4.976-3.426-9.339-9.128-9.569-2.249-.1-4.5-.029-6.746-.057a3.72,3.72,0,0,0-1.761.344,2.344,2.344,0,0,0-.813,2.019c.029,5.157.019,10.315.019,15.463,0,1.569.632,2.2,2.191,2.21,1.7,0,3.4-.038,5.1.01a13.085,13.085,0,0,0,6.277-1.081c.373-.249.756-.478,1.11-.756A10.082,10.082,0,0,0,188.158,62.016Zm-5.846,5.311a5.507,5.507,0,0,1-3.99,1.569c-1.407.019-2.813-.01-4.22.01-.459.01-.555-.163-.545-.584.019-1.971.01-3.942.01-5.923,0-1.952.01-3.9-.01-5.866,0-.44.086-.622.574-.612,1.464.038,2.928-.019,4.392.057a5.612,5.612,0,0,1,5.665,5.129A6.9,6.9,0,0,1,182.312,67.327Z" transform="translate(-169.566 -51.702)"/><path class="d" d="M243.932,60.846a9.155,9.155,0,0,0-7.942-8.286,52.8,52.8,0,0,0-8.612-.124,1.84,1.84,0,0,0-1.808,2.038V70.318a1.835,1.835,0,0,0,2.067,2.115c2.363.01,4.736.038,7.1-.01a8.754,8.754,0,0,0,6.8-3.033A10.607,10.607,0,0,0,243.932,60.846Zm-5.674,6.382a5.486,5.486,0,0,1-4.067,1.655c-1.426.019-2.851-.01-4.277.01-.431.01-.526-.153-.526-.545.019-1.99.01-3.99.01-5.98,0-1.952.01-3.9-.01-5.866-.01-.469.134-.6.6-.593,1.483.038,2.976-.019,4.449.057A5.564,5.564,0,0,1,240,60.8,6.96,6.96,0,0,1,238.258,67.228Z" transform="translate(-171.976 -51.699)"/><path class="d" d="M342.632,69.268c-1.11-1.387-2.249-2.756-3.387-4.124-.23-.277-.306-.421.105-.641a6.2,6.2,0,0,0,3.205-7.023,6.13,6.13,0,0,0-5.741-5.024c-2.612-.172-5.234-.038-7.856-.057-1.627-.01-2.249.6-2.249,2.22V64.761c0,1.895-.01,3.789,0,5.693a1.8,1.8,0,0,0,1.34,1.962,1.925,1.925,0,0,0,2.536-1.837c.038-1.56.029-3.129.01-4.689-.01-.44.134-.574.564-.565,1.091.029,2.191.029,3.282,0a1.091,1.091,0,0,1,1.053.555q1.923,2.813,3.894,5.578a2.062,2.062,0,0,0,3.1.545A1.905,1.905,0,0,0,342.632,69.268Zm-6.421-7.31c-.842.019-1.674,0-2.517,0-.861,0-1.722-.01-2.574.01-.364.01-.526-.077-.517-.488.019-1.694.019-3.4,0-5.1,0-.392.134-.5.517-.488,1.617.019,3.244-.019,4.861.01a2.98,2.98,0,0,1,2.756,4.421A2.706,2.706,0,0,1,336.211,61.958Z" transform="translate(-176.339 -51.701)"/></g><g transform="translate(163.233 21.835)"><path class="d" d="M270.127,29.431q-1.364,1.722-2.718,3.435c-.344.431-.67.871-1.024,1.282a1.537,1.537,0,0,1-2.622-.1c-1-1.359-1.952-2.737-2.928-4.114-.124-.172-.258-.335-.411-.545a.969.969,0,0,0-.124.689c-.01,2.545,0,5.081-.01,7.626a1.525,1.525,0,0,1-1.225,1.636,1.421,1.421,0,0,1-1.847-1.282,6.73,6.73,0,0,1-.029-.765V25.087c0-.191,0-.392.019-.584a1.507,1.507,0,0,1,1-1.387,1.4,1.4,0,0,1,1.55.411,4.724,4.724,0,0,1,.6.708c1.483,1.99,2.957,3.99,4.44,5.99.4.545.411.545.823-.019q2.354-3.186,4.717-6.363a1.544,1.544,0,0,1,1.837-.67,1.484,1.484,0,0,1,1.014,1.608c0,4.306.01,8.6,0,12.908,0,1.033-.488,1.646-1.311,1.7a1.389,1.389,0,0,1-1.55-1.2,4.644,4.644,0,0,1-.048-.813v-7.9A1.041,1.041,0,0,1,270.127,29.431Z" transform="translate(-174.329 -22.828)"/><path class="d" d="M242.42,31.336V25.059c0-1.32.478-1.789,1.818-1.789,2.66,0,5.32-.01,7.98,0a1.526,1.526,0,1,1,.01,3.043c-1.99.01-3.99.019-5.98-.01-.517-.01-.737.1-.7.67.057.775.029,1.56.01,2.344-.01.392.134.5.507.5,1.741-.019,3.483-.01,5.224-.01,1.091,0,1.684.536,1.694,1.5a1.5,1.5,0,0,1-1.713,1.569c-1.722.01-3.445.019-5.167-.01-.45-.01-.574.134-.555.565.029.785.038,1.569,0,2.344-.019.45.134.565.565.555q3.229-.029,6.449-.01a1.591,1.591,0,0,1,1.751,1.684,1.464,1.464,0,0,1-1.541,1.387c-.823.029-1.646.01-2.459.01h-6.22c-1.167,0-1.674-.517-1.674-1.694Q242.42,34.537,242.42,31.336Z" transform="translate(-173.692 -22.839)"/><path class="d" d="M197.125,39.584a8.038,8.038,0,0,1-5.7-2.086,8.46,8.46,0,0,1-2.383-6.7,8.147,8.147,0,0,1,2.4-5.818,8.372,8.372,0,0,1,11.08-.134,1.613,1.613,0,0,1,.2,2.258,1.533,1.533,0,0,1-2.21.01c-1.56-1.541-3.406-1.55-5.291-.947a4.573,4.573,0,0,0-3.177,3.933,5.79,5.79,0,0,0,1.273,5,5.275,5.275,0,0,0,7.224.411,2.514,2.514,0,0,1,.785-.507,1.634,1.634,0,0,1,1.7.5,1.592,1.592,0,0,1,.124,1.761,2.985,2.985,0,0,1-.947.947A8.225,8.225,0,0,1,197.125,39.584Z" transform="translate(-171.389 -22.819)"/><path class="d" d="M277.22,31.351c0-2.191-.01-4.382,0-6.574a1.573,1.573,0,0,1,2.363-1.4,1.481,1.481,0,0,1,.756,1.426c.01,1.053,0,2.115,0,3.167,0,3.263.01,6.535,0,9.8a1.543,1.543,0,0,1-2.048,1.636,1.386,1.386,0,0,1-1.072-1.483Z" transform="translate(-175.193 -22.835)"/><path class="d" d="M239.054,29.736a7.279,7.279,0,0,0-6.554-6.373,50.42,50.42,0,0,0-6.8-.067,1.464,1.464,0,0,0-1.407,1.579c-.01,2.172,0,4.344,0,6.516v6.334c0,1.167.507,1.684,1.674,1.694,1.933.01,3.875.029,5.808,0a6.926,6.926,0,0,0,5.033-2.048A8.358,8.358,0,0,0,239.054,29.736Zm-3.847,4.641a4.358,4.358,0,0,1-3.789,2.172c-1.148.029-2.306-.01-3.454.019-.431.01-.574-.105-.574-.555.029-1.56.01-3.129.01-4.689V26.636c0-.258-.029-.517.364-.507,1.292.019,2.583-.057,3.866.038a4.549,4.549,0,0,1,4.335,3.981A5.864,5.864,0,0,1,235.208,34.377Z" transform="translate(-172.909 -22.836)"/><path class="d" d="M298.747,36.938q-2.124-4.22-4.229-8.439c-.727-1.454-1.464-2.9-2.182-4.344a1.557,1.557,0,0,0-1.569-1,1.767,1.767,0,0,0-1.512,1.139c-1.1,2.162-2.21,4.315-3.311,6.478-1.081,2.105-2.163,4.21-3.225,6.315a1.641,1.641,0,0,0,.612,2.287,1.761,1.761,0,0,0,2.239-.832c.268-.517.536-1.043.766-1.579a.6.6,0,0,1,.632-.392c2.564.01,5.119.01,7.684,0a.65.65,0,0,1,.67.431c.258.565.545,1.129.832,1.684a1.353,1.353,0,0,0,1.617.746,1.6,1.6,0,0,0,1.273-1.531A1.927,1.927,0,0,0,298.747,36.938Zm-5.808-3.454c-1.483-.019-2.976-.01-4.459,0-.268,0-.5-.01-.306-.383l2.641-5.311c.316.689.565,1.215.8,1.741.526,1.158,1.053,2.316,1.588,3.464C293.351,33.293,293.4,33.484,292.939,33.484Z" transform="translate(-175.421 -22.833)"/><path class="d" d="M186.847,36.928q-1.909-3.8-3.818-7.6c-.871-1.732-1.732-3.464-2.612-5.186a1.558,1.558,0,0,0-2.029-.9,1.97,1.97,0,0,0-1.043,1.053c-1.043,2.057-2.1,4.1-3.148,6.162-1.129,2.21-2.268,4.411-3.387,6.631a1.644,1.644,0,0,0,.632,2.287,1.758,1.758,0,0,0,2.258-.9c.239-.488.488-.976.708-1.483a.639.639,0,0,1,.67-.431c2.545.01,5.081.019,7.626,0a.679.679,0,0,1,.718.459c.258.574.545,1.129.842,1.674a1.329,1.329,0,0,0,1.627.718,1.6,1.6,0,0,0,1.263-1.493A2.056,2.056,0,0,0,186.847,36.928ZM181,33.474c-.746-.01-1.483,0-2.229,0-.727,0-1.445-.01-2.172,0-.335.01-.488-.057-.306-.431.8-1.608,1.6-3.215,2.4-4.823.048-.1.077-.239.22-.239s.163.153.211.249c.737,1.6,1.454,3.2,2.2,4.794C181.527,33.445,181.355,33.483,181,33.474Z" transform="translate(-170.593 -22.833)"/><path class="d" d="M221.545,37.005l-1.665-3.3c-1.6-3.177-3.205-6.354-4.794-9.53a1.572,1.572,0,0,0-1.608-1.024,1.717,1.717,0,0,0-1.454,1.11q-2.167,4.263-4.354,8.506c-.746,1.464-1.512,2.918-2.229,4.392a1.623,1.623,0,0,0,.679,2.22,1.742,1.742,0,0,0,2.191-.832c.268-.526.526-1.043.775-1.579a.606.606,0,0,1,.622-.411c2.583.01,5.157.01,7.741,0a.567.567,0,0,1,.593.364c.277.584.565,1.158.861,1.732a1.35,1.35,0,0,0,1.655.756,1.568,1.568,0,0,0,1.234-1.569A1.725,1.725,0,0,0,221.545,37.005Zm-6.775-3.531H211.25c-.211,0-.555.077-.344-.344q1.177-2.368,2.354-4.717c.077-.153.163-.306.325-.593.708,1.531,1.359,2.947,2,4.363C216.187,33.474,216.177,33.474,214.771,33.474Z" transform="translate(-172.088 -22.833)"/></g><g transform="translate(0 10.659)"><path class="d" d="M153.465,11.14H101.728a.49.49,0,0,0-.488.488v2.938a.49.49,0,0,0,.488.488h49.948V82.139H101.728a.49.49,0,0,0-.488.488v2.938a.49.49,0,0,0,.488.488h51.737a2.126,2.126,0,0,0,2.124-2.124V13.264A2.119,2.119,0,0,0,153.465,11.14Z" transform="translate(-4.368 -11.14)"/><path class="d" d="M54.321,82.139H3.914V15.054H54.321a.49.49,0,0,0,.488-.488V11.628a.49.49,0,0,0-.488-.488H2.124A2.119,2.119,0,0,0,0,13.264V83.938a2.126,2.126,0,0,0,2.124,2.124h52.2a.49.49,0,0,0,.488-.488V82.636A.492.492,0,0,0,54.321,82.139Z" transform="translate(0 -11.14)"/></g></svg>