<svg xmlns="http://www.w3.org/2000/svg" width="46" height="46" viewBox="0 0 46 46"><defs><style>.a{fill:#8bf7f6;}.b{fill:#3c6b6a;}</style></defs><g transform="translate(-1573 -158)"><path class="a" d="M23,0A23,23,0,1,1,0,23,23,23,0,0,1,23,0Z" transform="translate(1573 158)"/><path class="b" d="M25.019,21.932l-4.939-4.939a1.188,1.188,0,0,0-.842-.347H18.43a10.3,10.3,0,1,0-1.784,1.784v.808a1.188,1.188,0,0,0,.347.842l4.939,4.939a1.184,1.184,0,0,0,1.679,0l1.4-1.4A1.2,1.2,0,0,0,25.019,21.932ZM10.3,16.646A6.341,6.341,0,1,1,16.646,10.3,6.338,6.338,0,0,1,10.3,16.646Z" transform="translate(1583 168)"/></g></svg>