<svg xmlns="http://www.w3.org/2000/svg" width="75.932" height="75.932" viewBox="0 0 75.932 75.932"><defs><style>.a{fill:#24a9e6;}.b{fill:#fff;}</style></defs><ellipse class="a" cx="37.966" cy="37.966" rx="37.966" ry="37.966"/><path class="b" d="M900.356,532.552a15.108,15.108,0,0,1-4.883,1.909,7.579,7.579,0,0,0-5.608-2.486,7.784,7.784,0,0,0-7.681,7.879,8.032,8.032,0,0,0,.2,1.794,21.634,21.634,0,0,1-15.839-8.235,8.02,8.02,0,0,0-1.04,3.965,7.929,7.929,0,0,0,3.418,6.558,7.532,7.532,0,0,1-3.482-.983v.1a7.833,7.833,0,0,0,6.167,7.726,7.325,7.325,0,0,1-2.025.277,7.508,7.508,0,0,1-1.447-.139,7.713,7.713,0,0,0,7.178,5.468,15.169,15.169,0,0,1-9.543,3.375,15.393,15.393,0,0,1-1.833-.108,21.388,21.388,0,0,0,11.778,3.537c14.136,0,21.863-12,21.863-22.417,0-.343-.006-.685-.02-1.021a15.765,15.765,0,0,0,3.832-4.078,15.048,15.048,0,0,1-4.412,1.24A7.867,7.867,0,0,0,900.356,532.552Z" transform="translate(-845.157 -509.826)"/></svg>